<svg width="249" height="92" viewBox="0 0 249 92" fill="none" xmlns="http://www.w3.org/2000/svg">
<rect width="249" height="92" rx="20" fill="#0065FF"/>
<path d="M51.776 37.2H56.048L60.272 50.52L64.472 37.2H68.744V54H65.888V40.344L61.424 54H59.096L54.608 40.272V54H51.776V37.2ZM72.2124 56.784H74.1804C74.6604 56.784 75.0124 56.696 75.2364 56.52C75.4764 56.36 75.6684 56.072 75.8124 55.656L76.1724 54.648L70.8204 41.28H73.8684L77.5644 51.48L81.0684 41.28H84.1404L78.2844 56.496C77.9164 57.44 77.4684 58.096 76.9404 58.464C76.4124 58.848 75.6284 59.04 74.5884 59.04H72.2124V56.784ZM97.8408 54.312C95.6488 54.312 93.9288 53.848 92.6808 52.92C91.4488 51.992 90.7768 50.688 90.6648 49.008H93.5928C93.6888 49.936 94.0968 50.656 94.8168 51.168C95.5528 51.664 96.5528 51.912 97.8168 51.912C98.8248 51.912 99.6328 51.696 100.241 51.264C100.849 50.816 101.153 50.208 101.153 49.44C101.153 48.928 101.009 48.52 100.721 48.216C100.449 47.912 100.073 47.672 99.5928 47.496C99.1128 47.304 98.3928 47.08 97.4328 46.824L96.7608 46.632C95.4488 46.264 94.4168 45.92 93.6648 45.6C92.9128 45.264 92.2968 44.792 91.8168 44.184C91.3528 43.56 91.1208 42.728 91.1208 41.688C91.1208 40.76 91.3688 39.936 91.8648 39.216C92.3768 38.48 93.0808 37.912 93.9768 37.512C94.8888 37.096 95.9208 36.888 97.0728 36.888C98.9128 36.888 100.417 37.376 101.585 38.352C102.769 39.312 103.465 40.64 103.673 42.336H100.745C100.585 41.392 100.169 40.648 99.4968 40.104C98.8408 39.544 98.0248 39.264 97.0488 39.264C96.1368 39.264 95.4088 39.464 94.8648 39.864C94.3208 40.264 94.0488 40.8 94.0488 41.472C94.0488 41.984 94.1928 42.392 94.4808 42.696C94.7688 42.984 95.1768 43.232 95.7048 43.44C96.2488 43.632 97.1448 43.896 98.3928 44.232C99.7848 44.616 100.889 45.024 101.705 45.456C102.521 45.872 103.121 46.384 103.505 46.992C103.889 47.584 104.081 48.328 104.081 49.224C104.081 50.248 103.825 51.144 103.313 51.912C102.801 52.68 102.073 53.272 101.129 53.688C100.185 54.104 99.0888 54.312 97.8408 54.312ZM111.586 54C110.322 54 109.354 53.68 108.682 53.04C108.01 52.4 107.674 51.472 107.674 50.256V43.584H105.25V41.28H107.674V37.2H110.482V41.28H113.674V43.584H110.482V50.184C110.482 50.712 110.61 51.112 110.866 51.384C111.122 51.656 111.498 51.792 111.993 51.792H113.674V54H111.586ZM119.779 54.24C118.403 54.24 117.315 53.912 116.515 53.256C115.715 52.584 115.315 51.672 115.315 50.52C115.315 49.448 115.643 48.6 116.299 47.976C116.955 47.352 117.931 46.96 119.227 46.8L122.395 46.392C123.483 46.248 124.027 45.768 124.027 44.952C124.027 44.44 123.811 44.024 123.379 43.704C122.947 43.368 122.323 43.2 121.507 43.2C120.611 43.2 119.875 43.392 119.299 43.776C118.723 44.16 118.379 44.68 118.267 45.336H115.555C115.667 44.472 115.987 43.712 116.515 43.056C117.059 42.384 117.763 41.864 118.627 41.496C119.491 41.128 120.459 40.944 121.531 40.944C123.163 40.944 124.443 41.328 125.371 42.096C126.299 42.864 126.763 43.888 126.763 45.168V50.88C126.763 51.296 126.843 51.584 127.003 51.744C127.179 51.904 127.451 51.984 127.819 51.984H128.131V54H126.955C125.371 54 124.491 53.312 124.315 51.936H124.243C123.891 52.672 123.323 53.24 122.539 53.64C121.771 54.04 120.851 54.24 119.779 54.24ZM120.571 52.128C121.627 52.128 122.467 51.824 123.091 51.216C123.715 50.592 124.027 49.76 124.027 48.72V47.328C123.755 47.968 123.131 48.352 122.155 48.48L119.803 48.792C119.243 48.872 118.811 49.048 118.507 49.32C118.203 49.592 118.051 49.952 118.051 50.4C118.051 50.944 118.275 51.368 118.723 51.672C119.171 51.976 119.787 52.128 120.571 52.128ZM135.835 54.312C134.571 54.312 133.451 54.032 132.475 53.472C131.499 52.896 130.739 52.096 130.195 51.072C129.651 50.048 129.379 48.872 129.379 47.544C129.379 46.248 129.651 45.104 130.195 44.112C130.739 43.104 131.499 42.328 132.475 41.784C133.451 41.224 134.571 40.944 135.835 40.944C137.451 40.944 138.795 41.408 139.867 42.336C140.955 43.248 141.587 44.472 141.763 46.008H139.003C138.843 45.144 138.483 44.472 137.923 43.992C137.379 43.512 136.683 43.272 135.835 43.272C134.747 43.272 133.867 43.664 133.195 44.448C132.539 45.232 132.211 46.264 132.211 47.544C132.211 48.872 132.539 49.944 133.195 50.76C133.867 51.576 134.747 51.984 135.835 51.984C136.683 51.984 137.387 51.744 137.947 51.264C138.507 50.784 138.859 50.112 139.003 49.248H141.763C141.539 50.816 140.891 52.056 139.819 52.968C138.763 53.864 137.435 54.312 135.835 54.312ZM144.042 36.24H146.85V47.256L152.394 41.28H155.778L151.05 46.008L156.33 54H153.066L149.178 47.88L146.85 50.232V54H144.042V36.24Z" fill="#F7F9FB"/>
<g opacity="0.3">
<path d="M172.333 38.8534C172.333 38.2367 172.547 37.6389 172.938 37.162C173.328 36.685 173.873 36.3582 174.477 36.2374L183.275 34.4774C183.565 34.4193 183.864 34.4265 184.152 34.4983C184.439 34.57 184.706 34.7047 184.935 34.8924C185.164 35.0802 185.348 35.3164 185.475 35.584C185.601 35.8517 185.667 36.144 185.667 36.44V45.1467C185.667 45.7634 185.453 46.3611 185.062 46.8381C184.672 47.3151 184.127 47.6418 183.523 47.7627L174.725 49.5227C174.435 49.5807 174.136 49.5736 173.848 49.5018C173.561 49.43 173.294 49.2954 173.065 49.1076C172.836 48.9199 172.652 48.6837 172.525 48.416C172.399 48.1484 172.333 47.856 172.333 47.56V38.8534Z" fill="#F7F9FB"/>
<path d="M176.333 42.8534C176.333 42.2367 176.547 41.6389 176.938 41.162C177.328 40.685 177.873 40.3582 178.477 40.2374L187.275 38.4774C187.565 38.4193 187.864 38.4265 188.152 38.4983C188.439 38.57 188.706 38.7047 188.935 38.8924C189.164 39.0802 189.348 39.3164 189.475 39.584C189.601 39.8517 189.667 40.144 189.667 40.44V49.1467C189.667 49.7634 189.453 50.3611 189.062 50.8381C188.672 51.3151 188.127 51.6418 187.523 51.7627L178.725 53.5227C178.435 53.5807 178.136 53.5736 177.848 53.5018C177.561 53.43 177.294 53.2954 177.065 53.1076C176.836 52.9199 176.652 52.6837 176.525 52.416C176.399 52.1484 176.333 51.856 176.333 51.56V42.8534Z" fill="#F7F9FB"/>
<path d="M180.333 46.8534C180.333 46.2367 180.547 45.6389 180.938 45.162C181.328 44.685 181.873 44.3582 182.477 44.2374L191.275 42.4774C191.565 42.4193 191.864 42.4265 192.152 42.4983C192.439 42.57 192.706 42.7047 192.935 42.8924C193.164 43.0802 193.348 43.3164 193.475 43.584C193.601 43.8517 193.667 44.144 193.667 44.44V53.1467C193.667 53.7634 193.453 54.3611 193.062 54.8381C192.672 55.3151 192.127 55.6418 191.523 55.7627L182.725 57.5227C182.435 57.5807 182.136 57.5736 181.848 57.5018C181.561 57.43 181.294 57.2954 181.065 57.1076C180.836 56.9199 180.652 56.6837 180.525 56.416C180.399 56.1484 180.333 55.856 180.333 55.56V46.8534Z" fill="#F7F9FB"/>
</g>
<path d="M176.333 49.2V51.56C176.333 51.8559 176.399 52.1481 176.526 52.4156C176.652 52.6831 176.836 52.9191 177.065 53.1067C177.294 53.2943 177.562 53.4288 177.849 53.5005C178.136 53.5722 178.435 53.5794 178.725 53.5214L180.333 53.2M176.333 49.2V42.8534C176.333 42.2367 176.547 41.6389 176.938 41.162C177.328 40.685 177.873 40.3582 178.477 40.2374L187.275 38.4774C187.565 38.4193 187.864 38.4265 188.152 38.4983C188.439 38.57 188.706 38.7047 188.935 38.8924C189.164 39.0802 189.348 39.3164 189.475 39.584C189.601 39.8517 189.667 40.144 189.667 40.44V42.8M176.333 49.2L174.725 49.5214C174.435 49.5793 174.136 49.5723 173.849 49.5006C173.562 49.429 173.295 49.2946 173.066 49.1071C172.837 48.9197 172.653 48.6838 172.526 48.4165C172.399 48.1492 172.334 47.8571 172.333 47.5614V38.8534C172.333 38.2367 172.547 37.6389 172.938 37.162C173.328 36.685 173.873 36.3582 174.477 36.2374L183.275 34.4774C183.565 34.4193 183.864 34.4265 184.152 34.4983C184.439 34.57 184.706 34.7047 184.935 34.8924C185.164 35.0802 185.348 35.3164 185.475 35.584C185.601 35.8517 185.667 36.144 185.667 36.44V38.6667M180.333 53.2V46.8534C180.333 46.2367 180.547 45.6389 180.938 45.162C181.328 44.685 181.873 44.3582 182.477 44.2374L189.667 42.8M180.333 53.2V55.56C180.333 55.856 180.399 56.1484 180.525 56.416C180.652 56.6837 180.836 56.9199 181.065 57.1076C181.294 57.2954 181.561 57.43 181.848 57.5018C182.136 57.5736 182.435 57.5807 182.725 57.5227L191.523 55.7627C192.127 55.6418 192.672 55.3151 193.062 54.8381C193.453 54.3611 193.667 53.7634 193.667 53.1467V44.4387C193.666 44.1429 193.601 43.8509 193.474 43.5836C193.347 43.3163 193.163 43.0804 192.934 42.8929C192.705 42.7054 192.438 42.5711 192.151 42.4994C191.864 42.4278 191.565 42.4207 191.275 42.4787L189.667 42.8" stroke="#F7F9FB" stroke-width="2"/>
</svg>
